<svg xmlns="http://www.w3.org/2000/svg" viewBox="0 0 128 128" role="img" aria-labelledby="title desc">
  <title id="title">Google Maps logo</title>
  <desc id="desc">A multicolor Google Maps style pin logo for location contact details.</desc>
  <rect width="128" height="128" rx="28" fill="#FFFFFF"/>
  <path d="M64 12c-24 0-44 19-44 43 0 32 44 61 44 61s44-29 44-61c0-24-20-43-44-43Z" fill="#34A853"/>
  <path d="M64 12c-14 0-27 7-35 18l24 20c3-5 7-8 11-8V12Z" fill="#4285F4"/>
  <path d="M64 42c5 0 10 3 13 8l24-20c-8-11-21-18-37-18v30Z" fill="#1A73E8"/>
  <path d="M77 50c2 4 2 9 0 14l25 20c4-8 6-18 6-29 0-9-3-18-7-25L77 50Z" fill="#FBBC04"/>
  <path d="M51 64c-2-5-2-10 2-14L29 30c-6 7-9 16-9 25 0 11 3 21 8 30l23-21Z" fill="#EA4335"/>
  <path d="M28 85c12 18 36 31 36 31s24-13 38-32L77 64c-3 5-8 8-13 8s-10-3-13-8L28 85Z" fill="#34A853"/>
  <circle cx="64" cy="57" r="16" fill="#FFFFFF"/>
  <circle cx="64" cy="57" r="8" fill="#1A73E8"/>
</svg>
