<svg xmlns="http://www.w3.org/2000/svg" viewBox="0 0 128 128" role="img" aria-labelledby="title desc">
  <title id="title">Meta logo</title>
  <desc id="desc">A blue Meta style infinity logo.</desc>
  <rect width="128" height="128" rx="28" fill="#FFFFFF"/>
  <path d="M24 78c7-28 18-42 31-42 9 0 16 7 23 18 7-11 14-18 24-18 16 0 26 16 26 37 0 18-8 31-21 31-12 0-21-10-31-27-11 17-21 27-33 27-14 0-22-10-19-26Z" fill="none" stroke="#0467DF" stroke-width="12" stroke-linecap="round" stroke-linejoin="round"/>
  <path d="M76 54c-7 10-13 22-20 31-5 7-9 10-14 10-6 0-10-6-7-16 5-19 12-31 20-31 6 0 12 6 21 18 11 16 19 29 30 29 7 0 11-8 11-21 0-15-6-27-16-27-8 0-14 8-25 27" fill="none" stroke="#0467DF" stroke-width="10" stroke-linecap="round" stroke-linejoin="round"/>
</svg>
