<svg xmlns="http://www.w3.org/2000/svg" viewBox="0 0 128 128" role="img" aria-labelledby="title desc">
  <title id="title">Phone logo</title>
  <desc id="desc">A green phone app style logo for phone contact details.</desc>
  <defs>
    <linearGradient id="phoneOriginalGradient" x1="22" y1="18" x2="106" y2="110" gradientUnits="userSpaceOnUse">
      <stop offset="0" stop-color="#35D26F"/>
      <stop offset="1" stop-color="#0F9D58"/>
    </linearGradient>
  </defs>
  <rect width="128" height="128" rx="28" fill="#FFFFFF"/>
  <circle cx="64" cy="64" r="48" fill="url(#phoneOriginalGradient)"/>
  <path d="M45 36c-6 3-11 10-12 17-2 12 7 29 23 45 15 15 32 24 44 22 7-1 14-6 17-12 2-4 1-8-3-10l-16-9c-4-2-9-1-12 3l-5 6c-1 2-4 2-6 1-8-4-20-16-25-24-1-3-1-5 1-7l6-5c4-3 5-8 3-12l-9-16c-2-4-6-5-10-3Z" fill="#FFFFFF"/>
  <path d="M83 34c13 4 23 14 27 27" fill="none" stroke="#DDFBE9" stroke-width="7" stroke-linecap="round"/>
</svg>
